<svg xmlns="http://www.w3.org/2000/svg" xmlns:xlink="http://www.w3.org/1999/xlink" width="444" height="1032"><svg width="94" height="94" viewBox="-2 -2 33 33"><g fill="none" fill-rule="evenodd"><path fill="#016FD0" d="M0 0h29v29H0V12.228z"/><path fill="#FFF" d="M5.623 20.203v-4.56h4.817l.516.678.531-.677H29v4.237s-.451.306-.983.306h-9.683l-.58-.725v.725h-1.917v-1.224s-.258.177-.821.177h-.645v1.047h-2.9l-.515-.693-.532.693-4.801.016zM0 12.228l1.08-2.53h1.884l.613 1.419V9.699h2.336l.37 1.031.355-1.031h10.488v.515s.548-.515 1.45-.515l3.4.016.612 1.402V9.699h1.95l.53.805V9.7h1.999v4.56h-1.982l-.516-.806v.805h-2.867l-.29-.725h-.774l-.29.725h-1.95c-.772 0-1.272-.5-1.272-.5v.5h-2.932l-.58-.725v.725H2.69l-.29-.725h-.774l-.29.725H0v-2.03z"/><path fill="#016FD0" d="M1.466 10.247 0 13.662h.95l.274-.676h1.58l.273.676h.983l-1.466-3.415H1.466zm.548.79.483 1.191h-.966l.483-1.192zm2.143 2.625v-3.415l1.353.016.79 2.19.773-2.206H8.41v3.415h-.854V11.15l-.902 2.513h-.741l-.919-2.513v2.513zm4.833 0v-3.415h2.787v.773H9.86v.58h1.869v.709H9.86v.612h1.917v.741zm3.27-3.415v3.415h.854v-1.208h.355l1.015 1.208h1.047l-1.128-1.256a1.03 1.03 0 0 0 .935-1.048c0-.725-.564-1.111-1.192-1.111H12.26zm.854.773h.967c.242 0 .403.177.403.354 0 .226-.226.355-.387.355h-.983v-.709zm3.464 2.642h-.87v-3.415h.87zm2.062 0h-.193c-.902 0-1.466-.709-1.466-1.691 0-1 .548-1.724 1.692-1.724h.934v.805h-.983c-.467 0-.789.37-.789.919 0 .66.37.934.918.934h.226l-.338.757zm1.853-3.415-1.466 3.415h.95l.275-.676h1.579l.273.676h.983l-1.466-3.415h-1.128zm.548.79.483 1.191h-.966l.483-1.192zm2.127 2.625v-3.415h1.08l1.385 2.142v-2.142h.854v3.415h-1.048l-1.417-2.207v2.207zM6.219 19.623v-3.415H8.99v.773H7.073v.58h1.869v.725h-1.87v.596H8.99v.741zm13.614 0v-3.415h2.787v.773h-1.917v.58h1.869v.725h-1.87v.596h1.918v.741zm-10.73 0 1.353-1.675-1.385-1.74h1.079l.822 1.08.821-1.08h1.031l-1.369 1.708 1.37 1.707h-1.08l-.806-1.047-.773 1.047zm3.818-3.399v3.415h.87V18.56h.902c.758 0 1.338-.403 1.338-1.192 0-.645-.452-1.144-1.225-1.144h-1.885zm.87.757h.95c.242 0 .42.145.42.387 0 .225-.178.386-.42.386h-.934v-.773h-.016zm2.61-.773v3.415h.854v-1.208h.354l1.015 1.208h1.048l-1.128-1.256a1.03 1.03 0 0 0 .934-1.048c0-.725-.564-1.111-1.192-1.111h-1.885zm.854.773h.967c.241 0 .402.177.402.355 0 .225-.225.354-.386.354h-.983v-.709zm5.768 2.642v-.74h1.708c.257 0 .354-.13.354-.29 0-.146-.113-.29-.354-.29h-.774c-.676 0-1.047-.404-1.047-1.016 0-.548.338-1.08 1.337-1.08h1.66l-.355.774h-1.434c-.274 0-.354.145-.354.274 0 .145.097.29.306.29h.806c.74 0 1.063.419 1.063.983 0 .596-.355 1.08-1.112 1.08l-1.804.015zm3.125 0v-.74h1.628c.257 0 .354-.13.354-.29 0-.146-.113-.29-.354-.29h-.693c-.677 0-1.047-.404-1.047-1.016 0-.548.338-1.08 1.337-1.08H29l-.354.774h-1.402c-.274 0-.355.145-.355.274 0 .145.097.29.307.29h.74c.742 0 1.064.419 1.064.983 0 .596-.354 1.08-1.112 1.08l-1.74.015z"/></g></svg><svg width="109" height="104" viewBox="-2 -2 45 42" y="94"><g fill="none" fill-rule="evenodd"><path fill="#F79F1A" d="M40.521 12.333c0 6.743-5.541 12.21-12.376 12.21-6.836 0-12.377-5.467-12.377-12.21 0-6.743 5.541-12.21 12.377-12.21 6.835 0 12.376 5.467 12.376 12.21z"/><path fill="#EA001B" d="M25.253 12.333c0 6.743-5.541 12.21-12.377 12.21C6.041 24.543.5 19.076.5 12.333.5 5.59 6.041.123 12.876.123c6.836 0 12.377 5.467 12.377 12.21z"/><path fill="#FF5F01" d="M20.51 2.722c-2.887 2.235-4.74 5.708-4.74 9.61 0 3.902 1.853 7.378 4.74 9.613 2.888-2.235 4.742-5.711 4.742-9.613 0-3.902-1.854-7.375-4.741-9.61z"/><path fill="#FFF" d="M2.133 36.904v-8.68h2.863c2.782 0 4.53 1.965 4.53 4.347 0 2.407-1.748 4.333-4.53 4.333H2.133zm.766-.677h2.097c2.366 0 3.723-1.626 3.723-3.656 0-2.03-1.344-3.67-3.723-3.67H2.899v7.326zm11.13-6.558 2.311-1.874h-.833l-2.07 1.874h.591zm-2.998 4.086c0-1.822 1.33-3.292 3.132-3.292 1.975 0 3.064 1.522 3.064 3.33v.183h-5.43c.067 1.366 1.008 2.498 2.54 2.498.82 0 1.573-.299 2.124-.871l.363.442c-.645.65-1.465 1.015-2.54 1.015-1.896 0-3.253-1.366-3.253-3.305zm3.118-2.707c-1.532 0-2.298 1.301-2.352 2.394h4.718c-.014-1.067-.74-2.394-2.366-2.394zm4.88 5.856v-8.68h.698v3.41c.524-.716 1.344-1.171 2.258-1.171 1.734 0 2.903 1.314 2.903 3.305 0 2.017-1.182 3.292-2.903 3.292a2.79 2.79 0 0 1-2.258-1.158v1.002h-.699zm.698-1.575c.376.599 1.237 1.12 2.137 1.12 1.452 0 2.272-1.159 2.272-2.681 0-1.523-.82-2.694-2.272-2.694-.9 0-1.76.547-2.137 1.145v3.11zm7.325-5.7a.53.53 0 0 0 .538-.52c0-.286-.242-.507-.538-.507-.282 0-.537.221-.537.507 0 .287.255.52.537.52zm-.349 7.275h.699v-6.285h-.699v6.285zm4.288.156c.537 0 .846-.156 1.102-.39l-.27-.52a1.03 1.03 0 0 1-.725.298c-.457 0-.672-.35-.672-.858v-4.373h1.317v-.598h-1.317V28.9h-.712v1.718h-1.076v.598h1.076v4.477c0 .859.416 1.366 1.277 1.366zm5.026 0c-1.895 0-3.118-1.47-3.118-3.305 0-1.835 1.223-3.292 3.118-3.292 1.923 0 3.132 1.457 3.132 3.292 0 1.835-1.21 3.305-3.132 3.305zm0-.612c1.533 0 2.38-1.288 2.38-2.693 0-1.393-.847-2.68-2.38-2.68-1.505 0-2.365 1.287-2.365 2.68 0 1.405.86 2.693 2.365 2.693z"/></g></svg><svg width="109" height="104" viewBox="-2 -2 45 42" y="198"><g fill="none" fill-rule="evenodd"><path fill="#F79F1A" d="M40.021 12.833c0 6.743-5.541 12.21-12.376 12.21-6.836 0-12.377-5.467-12.377-12.21 0-6.743 5.541-12.21 12.377-12.21 6.835 0 12.376 5.467 12.376 12.21z"/><path fill="#EA001B" d="M24.753 12.833c0 6.743-5.541 12.21-12.377 12.21C5.541 25.043 0 19.576 0 12.833 0 6.09 5.541.623 12.376.623c6.836 0 12.377 5.467 12.377 12.21z"/><path fill="#FF5F01" d="M20.01 3.222c-2.887 2.235-4.74 5.708-4.74 9.61 0 3.902 1.853 7.378 4.74 9.613 2.888-2.235 4.742-5.711 4.742-9.613 0-3.902-1.854-7.375-4.741-9.61z"/><path fill="#333" d="M1.633 37.404v-8.68h2.863c2.782 0 4.53 1.965 4.53 4.347 0 2.407-1.748 4.333-4.53 4.333H1.633zm.766-.677h2.097c2.366 0 3.723-1.626 3.723-3.656 0-2.03-1.344-3.67-3.723-3.67H2.399v7.326zm11.13-6.558 2.311-1.874h-.833l-2.07 1.874h.591zm-2.998 4.086c0-1.822 1.33-3.292 3.132-3.292 1.975 0 3.064 1.522 3.064 3.33v.183h-5.43c.067 1.366 1.008 2.498 2.54 2.498.82 0 1.573-.299 2.124-.871l.363.442c-.645.65-1.465 1.015-2.54 1.015-1.896 0-3.253-1.366-3.253-3.305zm3.118-2.707c-1.532 0-2.298 1.301-2.352 2.394h4.718c-.014-1.067-.74-2.394-2.366-2.394zm4.88 5.856v-8.68h.698v3.41c.524-.716 1.344-1.171 2.258-1.171 1.734 0 2.903 1.314 2.903 3.305 0 2.017-1.182 3.292-2.903 3.292a2.79 2.79 0 0 1-2.258-1.158v1.002h-.699zm.698-1.575c.376.599 1.237 1.12 2.137 1.12 1.452 0 2.272-1.159 2.272-2.681 0-1.523-.82-2.694-2.272-2.694-.9 0-1.76.547-2.137 1.145v3.11zm7.325-5.7a.53.53 0 0 0 .538-.52c0-.286-.242-.507-.538-.507-.282 0-.537.221-.537.507 0 .287.255.52.537.52zm-.349 7.275h.699v-6.285h-.699v6.285zm4.288.156c.537 0 .846-.156 1.102-.39l-.27-.52a1.03 1.03 0 0 1-.725.298c-.457 0-.672-.35-.672-.858v-4.373h1.317v-.598h-1.317V29.4h-.712v1.718h-1.076v.598h1.076v4.477c0 .859.416 1.366 1.277 1.366zm5.026 0c-1.895 0-3.118-1.47-3.118-3.305 0-1.835 1.223-3.292 3.118-3.292 1.923 0 3.132 1.457 3.132 3.292 0 1.835-1.21 3.305-3.132 3.305zm0-.612c1.533 0 2.38-1.288 2.38-2.693 0-1.393-.847-2.68-2.38-2.68-1.505 0-2.365 1.287-2.365 2.68 0 1.405.86 2.693 2.365 2.693z"/></g></svg><svg width="134" height="70" viewBox="-2 -2 134 70" fill="none" y="302"><path fill-rule="evenodd" clip-rule="evenodd" d="M75.636 1.752C77.407.982 79.93.339 82.005.106c1.967-.215 5.438-.09 7.513.25 1.61.287 4.651 1.092 5.045 1.342.178.107.035 1.038-.662 4.276-.483 2.29-.913 4.185-.966 4.221-.036.036-.859-.196-1.843-.536-2.576-.877-4.758-1.217-7.245-1.11-2.916.108-4.508.788-5.33 2.255-.502.876-.502 1.538.017 2.432.501.877 1.807 1.79 4.955 3.489 5.367 2.862 7.621 4.883 8.802 7.853.358.876.393 1.341.411 3.596 0 2.397-.036 2.7-.519 4.078-1.61 4.705-5.867 7.943-12.182 9.249-3.184.662-8.765.536-12.612-.287-1.985-.429-4.472-1.216-4.472-1.43 0-.251 1.807-8.64 1.879-8.712.035-.036.733.214 1.556.554 6.476 2.773 13.524 2.415 15.134-.77 1.127-2.235-.09-3.845-4.705-6.189-5.832-2.987-8.48-5.563-9.302-9.034-1.288-5.51 2.075-11.234 8.157-13.881zM.02 1.82c-.036-.036-.018-.322.035-.644L.18.604l9.499.054c9.248.054 9.516.072 10.321.43 1.038.482 1.968 1.395 2.433 2.414.233.501 1.163 5.08 2.54 12.415 1.199 6.386 2.237 11.771 2.308 11.95.09.215 1.843-4.043 5.563-13.47L38.301.622h5.527c3.077 0 5.492.072 5.456.161-.012.06-1.778 4.265-4.36 10.415l-.003.005-4.188 9.974-8.479 20.232-5.545-.036-5.564-.054-4.31-16.69c-2.362-9.195-4.473-17.048-4.688-17.477-.197-.43-.644-.984-.984-1.235C9.857 4.916 6.298 3.538 2.38 2.501 1.11 2.16.054 1.857.019 1.82zM53.794.747c0 .054-1.932 9.141-4.293 20.179-2.362 11.037-4.294 20.178-4.294 20.286 0 .143 1.396.196 5.224.16l5.224-.053 4.24-19.767a32050.05 32050.05 0 0 0 3.36-15.74l.005-.023.001-.007.98-4.588.143-.572H59.09c-2.916 0-5.295.054-5.295.125zm55.008 1.718c.572-.734 1.789-1.45 2.79-1.646.966-.197 10-.25 10-.054 0 .072 1.896 9.177 4.204 20.25C128.104 32.09 130 41.195 130 41.266c0 .09-2.165.144-4.83.144h-4.83l-.089-.412c-.161-.697-1.163-5.492-1.163-5.581 0-.054-3.041-.09-6.78-.09h-6.78l-1.073 2.988-1.074 3.005-5.474.054c-3.04.018-5.474-.036-5.474-.107 0-.43 15.993-38.282 16.369-38.801zm8.497 24.454-.125-.59c-.033-.14-.197-.931-.442-2.116l-.001-.001v-.001l-.001-.004-.002-.01c-.29-1.401-.694-3.35-1.128-5.418-1.342-6.368-1.503-6.922-1.7-6.44-.465 1.145-5.188 14.294-5.188 14.437 0 .071 1.932.143 4.294.143h4.293zM95.831 56.4c0 3.13-.053 6.44-.107 7.334l-.125 1.646h1.664v-1.502l.68.643c.965.912 1.413 1.11 2.718 1.11 1.414 0 2.362-.448 3.292-1.54.805-.93 1.181-2.146 1.181-3.828 0-3.023-1.646-4.973-4.204-4.955-1.163 0-2.219.412-2.863 1.127l-.357.394-.09-3.005-.09-3.024-.84-.053-.859-.054V56.4zm5.653.554c1.557.716 2.29 2.934 1.646 5.08-.662 2.2-3.327 2.916-4.776 1.289-.698-.805-.787-1.145-.698-3.167.036-1.413.125-1.753.483-2.272.43-.608 1.61-1.27 2.254-1.27.197 0 .68.161 1.091.34zm-12.589-4.567.03-.046.823-1.27h.894c.483 0 .894.053.894.107 0 .053-.536.733-1.198 1.52-1.073 1.253-1.288 1.413-1.807 1.413-.727 0-.716-.017.364-1.724zm-16.858-.836c-.34.036-.805.108-1.02.144l-.41.089v13.56l.41.107c.752.197 4.33.107 5.51-.143 3.775-.805 5.796-3.72 5.474-7.889-.232-3.095-1.985-5.08-5.08-5.724-1.109-.233-3.345-.305-4.884-.144zm5.492 1.95c1.145.59 2.075 1.664 2.38 2.72.089.357.178 1.323.178 2.128 0 2.558-.93 4.258-2.808 5.17-.912.447-1.217.5-2.898.519h-1.896l-.054-5.492-.036-5.492.394-.09c.232-.035 1.162-.053 2.075-.035 1.413.053 1.807.125 2.665.572zm31.398.25c-.913 0-1.378-.93-.931-1.806.143-.25.376-.34.895-.34s.751.09.894.34c.447.84-.018 1.807-.858 1.807zm5.653-.392-.859.232v1.95h-.805c-.436 0-.636 0-.727.1-.078.084-.078.24-.078.526 0 .287 0 .443.078.527.091.1.291.1.727.1h.805v3.166c0 1.753.089 3.506.197 3.882.393 1.413 1.753 2.128 3.381 1.753.554-.126.626-.197.68-.805l.053-.662h-.894c-.752 0-.948-.072-1.252-.465-.34-.448-.376-.716-.376-3.668v-3.202h2.504v-1.252h-2.486l-.054-1.216-.054-1.217-.84.25zm-29.411 3.79c.519-.769 1.789-1.61 2.773-1.806.876-.18 2.11 0 2.916.393 1.234.626 2.11 2.344 2.11 4.097v.894h-7.03l.108.823c.232 2.075 2.182 3.113 4.811 2.54 1.324-.286 1.342-.268 1.432.555.071.59-.966.948-2.898.966-1.914.036-2.916-.322-3.918-1.395-1.574-1.7-1.717-4.938-.304-7.067zm6.01 1.879c0-.77-.483-1.682-1.109-2.058-.715-.429-2.003-.465-2.665-.071-.59.376-1.198 1.27-1.342 2.004l-.107.572h5.224v-.447zm32.505-3.649c-2.272.537-3.632 2.237-3.847 4.723-.25 3.184 1.825 5.564 4.813 5.528 2.146-.018 3.917-1.234 4.561-3.166.412-1.253.376-3.274-.107-4.383-.447-1.02-1.431-2.057-2.326-2.415-.858-.358-2.272-.483-3.094-.287zm2.093 1.485c1.699.698 2.432 3.506 1.466 5.582-1.109 2.379-3.792 2.486-5.044.196-.698-1.288-.698-3.077 0-4.364.805-1.467 2.164-2.004 3.578-1.414zm-17.783 8.517v-9.84h1.788v9.84h-1.788z" fill="#fff"/></svg><svg width="134" height="70" viewBox="-2 -2 134 70" fill="none" y="372"><path fill-rule="evenodd" clip-rule="evenodd" d="M75.636 1.752C77.407.982 79.93.339 82.005.106c1.967-.215 5.438-.09 7.513.25 1.61.287 4.651 1.092 5.045 1.342.178.107.035 1.038-.662 4.276-.483 2.29-.913 4.185-.966 4.221-.036.036-.859-.196-1.843-.536-2.576-.877-4.758-1.217-7.245-1.11-2.916.108-4.508.788-5.33 2.255-.502.876-.502 1.538.017 2.432.501.877 1.807 1.79 4.955 3.489 5.367 2.862 7.621 4.883 8.802 7.853.358.876.393 1.341.411 3.596 0 2.397-.036 2.7-.519 4.078-1.61 4.705-5.867 7.943-12.182 9.249-3.184.662-8.765.536-12.612-.287-1.985-.429-4.472-1.216-4.472-1.43 0-.251 1.807-8.64 1.879-8.712.035-.036.733.214 1.556.554 6.476 2.773 13.524 2.415 15.134-.77 1.127-2.235-.09-3.845-4.705-6.189-5.832-2.987-8.48-5.563-9.302-9.034-1.288-5.51 2.075-11.234 8.157-13.881zM.02 1.82c-.036-.036-.018-.322.035-.644L.18.604l9.499.054c9.248.054 9.516.072 10.321.43 1.038.482 1.968 1.395 2.433 2.414.233.501 1.163 5.08 2.54 12.415 1.199 6.386 2.237 11.771 2.308 11.95.09.215 1.843-4.043 5.563-13.47L38.301.622h5.527c3.077 0 5.492.072 5.456.161-.012.06-1.778 4.265-4.36 10.415l-.003.005-4.188 9.974-8.479 20.232-5.545-.036-5.564-.054-4.31-16.69c-2.362-9.195-4.473-17.048-4.688-17.477-.197-.43-.644-.984-.984-1.235C9.857 4.916 6.298 3.538 2.38 2.501 1.11 2.16.054 1.857.019 1.82zM53.794.747c0 .054-1.932 9.141-4.293 20.179-2.362 11.037-4.294 20.178-4.294 20.286 0 .143 1.396.196 5.224.16l5.224-.053 4.24-19.767a32050.05 32050.05 0 0 0 3.36-15.74l.005-.023.001-.007.98-4.588.143-.572H59.09c-2.916 0-5.295.054-5.295.125zm55.008 1.718c.572-.734 1.789-1.45 2.79-1.646.966-.197 10-.25 10-.054 0 .072 1.896 9.177 4.204 20.25C128.104 32.09 130 41.195 130 41.266c0 .09-2.165.144-4.83.144h-4.83l-.089-.412c-.161-.697-1.163-5.492-1.163-5.581 0-.054-3.041-.09-6.78-.09h-6.78l-1.073 2.988-1.074 3.005-5.474.054c-3.04.018-5.474-.036-5.474-.107 0-.43 15.993-38.282 16.369-38.801zm8.497 24.454-.125-.59c-.033-.14-.197-.931-.442-2.116l-.001-.001v-.001l-.001-.004-.002-.01c-.29-1.401-.694-3.35-1.128-5.418-1.342-6.368-1.503-6.922-1.7-6.44-.465 1.145-5.188 14.294-5.188 14.437 0 .071 1.932.143 4.294.143h4.293zM95.831 56.4c0 3.13-.053 6.44-.107 7.334l-.125 1.646h1.664v-1.502l.68.643c.965.912 1.413 1.11 2.718 1.11 1.414 0 2.362-.448 3.292-1.54.805-.93 1.181-2.146 1.181-3.828 0-3.023-1.646-4.973-4.204-4.955-1.163 0-2.219.412-2.863 1.127l-.357.394-.09-3.005-.09-3.024-.84-.053-.859-.054V56.4zm5.653.554c1.557.716 2.29 2.934 1.646 5.08-.662 2.2-3.327 2.916-4.776 1.289-.698-.805-.787-1.145-.698-3.167.036-1.413.125-1.753.483-2.272.43-.608 1.61-1.27 2.254-1.27.197 0 .68.161 1.091.34zm-12.589-4.567.03-.046.823-1.27h.894c.483 0 .894.053.894.107 0 .053-.536.733-1.198 1.52-1.073 1.253-1.288 1.413-1.807 1.413-.727 0-.716-.017.364-1.724zm-16.858-.836c-.34.036-.805.108-1.02.144l-.41.089v13.56l.41.107c.752.197 4.33.107 5.51-.143 3.775-.805 5.796-3.72 5.474-7.889-.232-3.095-1.985-5.08-5.08-5.724-1.109-.233-3.345-.305-4.884-.144zm5.492 1.95c1.145.59 2.075 1.664 2.38 2.72.089.357.178 1.323.178 2.128 0 2.558-.93 4.258-2.808 5.17-.912.447-1.217.5-2.898.519h-1.896l-.054-5.492-.036-5.492.394-.09c.232-.035 1.162-.053 2.075-.035 1.413.053 1.807.125 2.665.572zm31.398.25c-.913 0-1.378-.93-.931-1.806.143-.25.376-.34.895-.34s.751.09.894.34c.447.84-.018 1.807-.858 1.807zm5.653-.392-.859.232v1.95h-.805c-.436 0-.636 0-.727.1-.078.084-.078.24-.078.526 0 .287 0 .443.078.527.091.1.291.1.727.1h.805v3.166c0 1.753.089 3.506.197 3.882.393 1.413 1.753 2.128 3.381 1.753.554-.126.626-.197.68-.805l.053-.662h-.894c-.752 0-.948-.072-1.252-.465-.34-.448-.376-.716-.376-3.668v-3.202h2.504v-1.252h-2.486l-.054-1.216-.054-1.217-.84.25zm-29.411 3.79c.519-.769 1.789-1.61 2.773-1.806.876-.18 2.11 0 2.916.393 1.234.626 2.11 2.344 2.11 4.097v.894h-7.03l.108.823c.232 2.075 2.182 3.113 4.811 2.54 1.324-.286 1.342-.268 1.432.555.071.59-.966.948-2.898.966-1.914.036-2.916-.322-3.918-1.395-1.574-1.7-1.717-4.938-.304-7.067zm6.01 1.879c0-.77-.483-1.682-1.109-2.058-.715-.429-2.003-.465-2.665-.071-.59.376-1.198 1.27-1.342 2.004l-.107.572h5.224v-.447zm32.505-3.649c-2.272.537-3.632 2.237-3.847 4.723-.25 3.184 1.825 5.564 4.813 5.528 2.146-.018 3.917-1.234 4.561-3.166.412-1.253.376-3.274-.107-4.383-.447-1.02-1.431-2.057-2.326-2.415-.858-.358-2.272-.483-3.094-.287zm2.093 1.485c1.699.698 2.432 3.506 1.466 5.582-1.109 2.379-3.792 2.486-5.044.196-.698-1.288-.698-3.077 0-4.364.805-1.467 2.164-2.004 3.578-1.414zm-17.783 8.517v-9.84h1.788v9.84h-1.788z" fill="#1434CB"/></svg><svg width="163" height="46" viewBox="-2 -2 163 46" y="442"><defs><path id="a" d="M1.23 1.325h13.22v5.35H1.23z"/></defs><g fill="none" fill-rule="evenodd"><path fill="#FFF" fill-rule="nonzero" d="M0 37.188h37.188V0H0z"/><path d="M13.842 20.25c0 1.917-.429 3.391-2.614 3.391-2.447 0-2.709-1.73-2.709-3.135V9.514l-3.137.68V20.95c0 4.093 2.899 5.66 5.704 5.66 3.66 0 5.893-2.316 5.893-5.215V9.514l-3.137.68V20.25zm10.854 3.648c-2.02 0-3.493-1.66-3.493-3.602 0-1.941 1.474-3.602 3.493-3.602 2.02 0 3.494 1.66 3.494 3.602 0 1.941-1.474 3.602-3.494 3.602m.193-9.904a5.94 5.94 0 0 0-3.393 1.044v-1.746l-3.027.72v16.433l3.02-.68v-4.206a6.016 6.016 0 0 0 3.4 1.048c3.401 0 6.158-2.822 6.158-6.306 0-3.482-2.757-6.307-6.158-6.307" fill="#E9950D" fill-rule="nonzero"/><path d="M146.529 9.952h.48c.156 0 .441 0 .441.412 0 .156-.07.428-.454.428h-.467v-.84zm.015 1.321h.523c.215 0 .269.087.312.26 0 .043.097.81.115.955h.634c-.085-.144-.126-.558-.156-.8-.054-.384-.084-.654-.496-.682.213-.072.567-.188.567-.74 0-.801-.692-.801-1.047-.801h-1.035v3.023h.583v-1.215z" fill="#FFF" fill-rule="nonzero"/><path d="M146.708 8.918c.924 0 1.688.731 1.688 1.648 0 .903-.755 1.659-1.688 1.659a1.667 1.667 0 0 1-1.674-1.66c0-.927.764-1.647 1.674-1.647m.007 3.625c1.104 0 2.002-.886 2.002-1.971 0-1.116-.922-1.972-2.002-1.972-1.072 0-2.003.856-2.003 1.972 0 1.096.911 1.971 2.003 1.971M87.696 2.233s-4.332 5.27-4.514 7.151c0 0 1.479.386 5.981-5.19a4.43 4.43 0 0 0 .324-.402l.008-.01h-.001c.635-.897.427-1.519-1.798-1.55m34.071 17.438c-3.358-2.887-9.888 5.893-12.583 9.345-3.417 3.575-.058-4.325.489-5.52 6.167-11.476 12.336-9.283 12.336-9.283.73-1.882-5.801-1.692-6.595-1.632-6.164 2.262-10.015 13.171-11.173 16.626-1.04 3.888 3.051 3.193 3.79 2.697 6.219-8.85 7.147-8.97 7.874-9.225 1.768.126 0 6.528.116 7.15 2.935-.939 5.746-9.658 5.746-10.157m26.798 5.765c-1.248.586-8.991 4.537-10.41 5.486h-.002s-.392.212-.557.41a.216.216 0 0 0-.06.092c-.043.105.012.196.284.226a2.273 2.273 0 0 0 .304.062s10.624-5.455 11.97-5.773c.484-.06.236-1.066-1.529-.503" fill="#FFF" fill-rule="nonzero"/><path d="M113.717 10.7c4.516-2.45 9.39-4.769 9.39-4.769s-3.917-3.031-7.692 0c-3.725 2.963-9.337 7.626-19.922 24.55v.002c-.423.67-.797.88-1.096.894-.773 0-1.07-1.366-1.108-1.558-.112-.754.047-1.572.272-3.31.751-5.777 3.851-12 1.315-13.943v-.006s-.943-.769-2.977-.455c0 0 .191 3.417.214 5.088-.118 4.16-.405 9.613-.502 11.261-.01.537-.295 2.61.533 3.607v.002s.013.017.04.047c.054.058.109.114.169.161.524.466 1.964 1.408 3.57-.471.161-.177.344-.397.551-.663.146-.184.258-.33.337-.442.32-.437.697-.967 1.147-1.62 2.134-3.008 9.939-15.244 15.76-18.375m23.153-8.505c.007-.01.018-.017.024-.028a4.21 4.21 0 0 0 .378-.561l.001-.003c.052-.1.068-.149.068-.149.031-.165.585-1.385-2.87-1.235-2.914.126-3.04 2.317-3.008 3.001l-.004-.003s-.017 1.283-1.072 3.57c-2.902 6.268-12.985 28.283-13.429 32.651h-.001s-.018.109-.013.214l-.002.03h.003c.005.07.025.137.068.158.06.027.187-.108.295-.247a3.061 3.061 0 0 0 .186-.261c.36-.539 1.022-1.709 2.315-4.168 2.568-4.958 16.36-31.8 16.36-31.8s.283-.53.701-1.169" fill="#FFF" fill-rule="nonzero"/><g transform="translate(141.793 25.5)"><mask id="b" fill="#fff"><use xlink:href="#a"/></mask><path d="M14.407 1.834c-.233-.599-1.233-.503-1.233-.503l-.004.005c-2.465-.008-8.475 2.793-10.908 3.98 0 0-.134.057-.304.149-.447.242-1.15.728-.394 1.087.198.076.444.107.677.118.382.017.735-.02.808-.02.186-.562 6.041-2.323 8.974-3.134a11.018 11.018 0 0 0 1.445-.526c.001-.002.004-.002.004-.002.436-.185 1.168-.553.935-1.154" fill="#FFF" fill-rule="nonzero" mask="url(#b)"/></g><path d="M68.833 22.052c-7.14 7.966-15.447 11.982-18.621 13.488-1.259.68-2.012 1.047-2.475 1.23a2.036 2.036 0 0 0-.104.042c-.027.013-.05.017-.076.027l-.09.032c-.721.174-.34-.781-.298-.912 3.151-6.55 21.238-14.281 21.238-14.281.308-.125.549.12.426.374m9.769-9.408c-.67 1.882-2.32 5.71-2.744 5.774-.494.06-.918-.19-2.14-1.131-1.588-1.255-3.172-3.887-13.734-2.193-.43.038-.902-.937 1.22-2.324 1.892-1.243 6.652-5.019 15.752-6.839 0 0-1.647-5.325-4.275-4.14-1.819 1.1-15.361 10.29-16.914 13.05-1.149 1.743-.357 4.156 3.365 2.733 2.32-.923 9.698-2.59 12.426.401.106.125.238.407-.072.912-.274.402-.773.864-1.617 1.096-1.91.451-19.157 5.816-26.254 15.5-.192.283-.63 1.056-.28 1.823.476 1.055 1.642 2.314 4.522 1.173 3.45-1.367 10.598-4.193 26.042-17.243.458-.378 1.164-.942.426 1.006-.365.878-4.085 8.593-2.073 9.661 1.91.585 3.844.875 4.215-1.508.363-2.071 2.071-10.1 6.96-14.802.239-.5-3.36-5.33-4.825-2.949m61.889 1.928c.517-.247 1.354-.49 1.852.191.262.458.189 1.13-.009 1.734-.013.034-.557 1.304-2.547 2.472-2.361 1.357-5.88 2.94-6.423 2.896 1.355-3.791 5.485-6.386 7.127-7.293m-7.616 8.232s6.567-1.878 9.81-4.434c2.336-1.672 1.982-3.897 1.982-3.897-.034-.929-.507-1.882-2.326-2.143-.917-.06-6.964-.877-10.99 7.213-1.338 2.343-5.458 9.161-4.703 11.451v.011c.355.9 1.056 1.258 1.056 1.258 3.182 1.418 9.085-3.012 11.202-4.735 0 0 2.465-1.806 2.619-1.911.921-.647 1.556-1.122 1.605-1.245.063-.374-.608-.814-3.903 1.508-1.892 1.296-4.446 3.066-5.976 3.932-.226.122-1.204.608-2.252.62-.803-.035-1.443-.498-.445-2.672 1.098-2.82 1.953-4.956 2.32-4.956" fill="#FFF" fill-rule="nonzero"/></g></svg><svg height="84" width="114" viewBox="-2 -3 99 79" y="488"><g fill-rule="evenodd" fill="none"><path fill="#F79F1A" d="M94.92 29.255c0 16.066-13.119 29.09-29.302 29.09s-29.302-13.024-29.302-29.09C36.316 13.19 49.435.166 65.618.166S94.92 13.19 94.92 29.255z"/><path fill="#EA001B" d="M58.772 29.255c0 16.066-13.119 29.09-29.302 29.09S.168 45.321.168 29.255C.168 13.19 13.287.166 29.47.166S58.772 13.19 58.772 29.255z"/><path fill="#FF5F01" d="M47.544 6.356c-6.837 5.326-11.225 13.601-11.225 22.897s4.388 17.577 11.225 22.902c6.837-5.325 11.225-13.606 11.225-22.902s-4.388-17.57-11.225-22.897z"/><path d="M6.686 72.735H5.023v-7.689h1.63v.937s1.432-1.145 2.282-1.13c1.654.027 2.641 1.42 2.641 1.42s.801-1.42 2.608-1.42c2.673 0 3.065 2.422 3.065 2.422v5.428h-1.597v-4.782s.005-1.453-1.728-1.453c-1.793 0-1.957 1.454-1.957 1.454v4.781h-1.662v-4.814s-.16-1.518-1.663-1.518c-1.952 0-1.989 1.55-1.989 1.55l.033 4.814zm50.566-7.884c-.851-.014-2.282 1.131-2.282 1.131v-.935h-1.632v7.687h1.664l-.032-4.813s.036-1.547 1.988-1.547c.363 0 .645.087.867.22v-.006l.542-1.497a3.01 3.01 0 0 0-1.115-.24zm23.422 0c-.85-.014-2.282 1.131-2.282 1.131v-.935H76.76v7.687h1.664l-.032-4.813s.037-1.547 1.989-1.547c.363 0 .644.087.867.22v-.006l.542-1.497a3.011 3.011 0 0 0-1.116-.24zm-58.048-.031c-2.489 0-3.806 2.216-3.812 4.067-.007 1.898 1.499 4.087 3.882 4.087 1.39 0 2.532-1.017 2.532-1.017l-.003.783h1.637v-7.696h-1.643v.97s-1.072-1.194-2.593-1.194zm.318 1.566c1.337 0 2.423 1.153 2.423 2.571s-1.086 2.564-2.423 2.564-2.416-1.146-2.416-2.564 1.079-2.57 2.416-2.57zm47.412-1.566c-2.488 0-3.805 2.216-3.812 4.067-.007 1.898 1.499 4.087 3.882 4.087 1.39 0 2.532-1.017 2.532-1.017l-.003.783h1.637v-7.696H72.95v.97s-1.073-1.194-2.594-1.194zm.319 1.566c1.337 0 2.422 1.153 2.422 2.571s-1.085 2.564-2.422 2.564-2.416-1.146-2.416-2.564 1.079-2.57 2.416-2.57zm15.396-1.566c-2.489 0-3.806 2.216-3.812 4.067-.007 1.898 1.499 4.087 3.882 4.087 1.39 0 2.532-1.017 2.532-1.017l-.003.783h1.637V62.006h-1.643v4.008s-1.072-1.194-2.593-1.194zm.318 1.566c1.337 0 2.423 1.153 2.423 2.571s-1.086 2.564-2.423 2.564-2.416-1.146-2.416-2.564 1.079-2.57 2.416-2.57zm-54.534 6.607c-1.695 0-3.26-1.033-3.26-1.033l.717-1.099s1.481.679 2.543.679c.69 0 1.845-.221 1.859-.905.014-.723-1.94-.937-1.94-.937s-2.918-.04-2.918-2.423c0-1.499 1.457-2.455 3.325-2.455 1.08 0 3.097.937 3.097.937l-.815 1.26s-1.558-.617-2.38-.646c-.694-.025-1.532.304-1.532.904 0 1.63 4.858-.127 4.858 3.166 0 2.161-1.979 2.552-3.554 2.552zm6.254-10.176v2.237h-1.447v1.617h1.447v3.865s-.128 2.615 2.709 2.615c.785 0 2.321-.575 2.321-.575l-.657-1.68s-.611.516-1.3.5c-1.312-.034-1.275-.866-1.275-.866v-3.86h2.703v-1.615h-2.703v-2.238h-1.798zm9.849 2.098c-2.669 0-4.002 2.177-3.991 4.067.012 1.944 1.214 4.131 4.15 4.131 1.257 0 3.022-1.093 3.022-1.093l-.759-1.307s-1.204.846-2.263.846c-2.119 0-2.256-2.052-2.256-2.052h5.673s.423-4.592-3.576-4.592zm-.243 1.51c.063-.004.131 0 .198 0 1.997 0 1.983 1.869 1.983 1.869h-4.035s-.096-1.76 1.854-1.87zm17.118 4.268.761 1.508s-1.206.776-2.559.776c-2.802 0-4.357-2.089-4.357-4.066 0-3.107 2.475-4.02 4.149-4.02 1.52 0 2.836.868 2.836.868l-.853 1.508s-.517-.8-2.029-.8c-1.509 0-2.305 1.29-2.305 2.513 0 1.371.927 2.536 2.328 2.536 1.1 0 2.029-.823 2.029-.823z" fill="#fff"/></g></svg><svg height="84" width="114" viewBox="-2 -3 99 79" y="572"><g fill-rule="evenodd" fill="none"><path fill="#F79F1A" d="M94.92 29.255c0 16.066-13.119 29.09-29.302 29.09s-29.302-13.024-29.302-29.09C36.316 13.19 49.435.166 65.618.166S94.92 13.19 94.92 29.255z"/><path fill="#EA001B" d="M58.772 29.255c0 16.066-13.119 29.09-29.302 29.09S.168 45.321.168 29.255C.168 13.19 13.287.166 29.47.166S58.772 13.19 58.772 29.255z"/><path fill="#FF5F01" d="M47.544 6.356c-6.837 5.326-11.225 13.601-11.225 22.897s4.388 17.577 11.225 22.902c6.837-5.325 11.225-13.606 11.225-22.902s-4.388-17.57-11.225-22.897z"/><path d="M6.686 72.735H5.023v-7.689h1.63v.937s1.432-1.145 2.282-1.13c1.654.027 2.641 1.42 2.641 1.42s.801-1.42 2.608-1.42c2.673 0 3.065 2.422 3.065 2.422v5.428h-1.597v-4.782s.005-1.453-1.728-1.453c-1.793 0-1.957 1.454-1.957 1.454v4.781h-1.662v-4.814s-.16-1.518-1.663-1.518c-1.952 0-1.989 1.55-1.989 1.55l.033 4.814zm50.566-7.884c-.851-.014-2.282 1.131-2.282 1.131v-.935h-1.632v7.687h1.664l-.032-4.813s.036-1.547 1.988-1.547c.363 0 .645.087.867.22v-.006l.542-1.497a3.01 3.01 0 0 0-1.115-.24zm23.422 0c-.85-.014-2.282 1.131-2.282 1.131v-.935H76.76v7.687h1.664l-.032-4.813s.037-1.547 1.989-1.547c.363 0 .644.087.867.22v-.006l.542-1.497a3.011 3.011 0 0 0-1.116-.24zm-58.048-.031c-2.489 0-3.806 2.216-3.812 4.067-.007 1.898 1.499 4.087 3.882 4.087 1.39 0 2.532-1.017 2.532-1.017l-.003.783h1.637v-7.696h-1.643v.97s-1.072-1.194-2.593-1.194zm.318 1.566c1.337 0 2.423 1.153 2.423 2.571s-1.086 2.564-2.423 2.564-2.416-1.146-2.416-2.564 1.079-2.57 2.416-2.57zm47.412-1.566c-2.488 0-3.805 2.216-3.812 4.067-.007 1.898 1.499 4.087 3.882 4.087 1.39 0 2.532-1.017 2.532-1.017l-.003.783h1.637v-7.696H72.95v.97s-1.073-1.194-2.594-1.194zm.319 1.566c1.337 0 2.422 1.153 2.422 2.571s-1.085 2.564-2.422 2.564-2.416-1.146-2.416-2.564 1.079-2.57 2.416-2.57zm15.396-1.566c-2.489 0-3.806 2.216-3.812 4.067-.007 1.898 1.499 4.087 3.882 4.087 1.39 0 2.532-1.017 2.532-1.017l-.003.783h1.637V62.006h-1.643v4.008s-1.072-1.194-2.593-1.194zm.318 1.566c1.337 0 2.423 1.153 2.423 2.571s-1.086 2.564-2.423 2.564-2.416-1.146-2.416-2.564 1.079-2.57 2.416-2.57zm-54.534 6.607c-1.695 0-3.26-1.033-3.26-1.033l.717-1.099s1.481.679 2.543.679c.69 0 1.845-.221 1.859-.905.014-.723-1.94-.937-1.94-.937s-2.918-.04-2.918-2.423c0-1.499 1.457-2.455 3.325-2.455 1.08 0 3.097.937 3.097.937l-.815 1.26s-1.558-.617-2.38-.646c-.694-.025-1.532.304-1.532.904 0 1.63 4.858-.127 4.858 3.166 0 2.161-1.979 2.552-3.554 2.552zm6.254-10.176v2.237h-1.447v1.617h1.447v3.865s-.128 2.615 2.709 2.615c.785 0 2.321-.575 2.321-.575l-.657-1.68s-.611.516-1.3.5c-1.312-.034-1.275-.866-1.275-.866v-3.86h2.703v-1.615h-2.703v-2.238h-1.798zm9.849 2.098c-2.669 0-4.002 2.177-3.991 4.067.012 1.944 1.214 4.131 4.15 4.131 1.257 0 3.022-1.093 3.022-1.093l-.759-1.307s-1.204.846-2.263.846c-2.119 0-2.256-2.052-2.256-2.052h5.673s.423-4.592-3.576-4.592zm-.243 1.51c.063-.004.131 0 .198 0 1.997 0 1.983 1.869 1.983 1.869h-4.035s-.096-1.76 1.854-1.87zm17.118 4.268.761 1.508s-1.206.776-2.559.776c-2.802 0-4.357-2.089-4.357-4.066 0-3.107 2.475-4.02 4.149-4.02 1.52 0 2.836.868 2.836.868l-.853 1.508s-.517-.8-2.029-.8c-1.509 0-2.305 1.29-2.305 2.513 0 1.371.927 2.536 2.328 2.536 1.1 0 2.029-.823 2.029-.823z" fill="#000"/></g></svg><svg width="94" height="84" viewBox="-2 -2 37 28" y="656"><g transform="translate(.137 .352)" fill="#FFF" fill-rule="evenodd"><path d="m15.968 0 .364.003c8.597.13 15.51 4.856 15.53 10.638v.156c-.001.185-.008.297.007.473l-.003.256c-.159 6.12-6.277 11.074-15.902 11.095l-.396-.001C6.102 22.52.03 17.536.008 11.368L0 10.738l.003-.244C.18 4.709 7.22.026 15.896 0h.072zm0 .555h-.069C7.64.578.933 5.009.755 10.5l-.003.243c.015 5.52 6.626 9.992 14.84 10.097l.363.002c8.26-.024 14.967-4.455 15.145-9.945l.003-.243C31.088 5.148 24.512.686 16.33.557l-.362-.002z"/><use xlink:href="#a"/></g></svg><svg width="444" height="82" viewBox="-2 -2 444 82" y="740"><g fill="none" fill-rule="evenodd"><path d="M60.84 32.95c0-10.782-13.207-19.575-29.494-19.575-16.288 0-29.494 8.793-29.494 19.576l-.001 1.144C1.85 45.532 13.394 54.8 31.34 54.8c18.063 0 29.5-9.267 29.5-20.7v-1.15z" fill="#2D3277"/><path d="M59.711 32.941c0 10.16-12.697 18.405-28.357 18.405-15.668 0-28.363-8.245-28.363-18.405 0-10.166 12.695-18.408 28.363-18.408 15.66 0 28.357 8.242 28.357 18.408" fill="#00A3DB"/><path d="M21.935 27.134c-.02.026-.299.328-.117.563.448.581 1.83.913 3.228.594.834-.19 1.9-1.05 2.934-1.88 1.121-.906 2.23-1.806 3.353-2.17 1.175-.378 1.936-.215 2.435-.06.549.16 1.198.531 2.227 1.318 1.94 1.476 9.744 8.388 11.093 9.582 1.085-.498 5.907-2.604 12.467-4.074-.571-3.545-2.693-6.792-5.924-9.45-4.493 1.919-9.986 2.917-15.36.256-.025-.013-2.935-1.406-5.799-1.34-4.26.104-6.105 1.973-8.061 3.954l-2.476 2.707z" fill="#FFF"/><path d="M46.767 35.83c-.088-.082-9.17-8.143-11.227-9.714-1.197-.905-1.854-1.135-2.552-1.23-.362-.04-.864.026-1.212.121-.954.266-2.205 1.115-3.319 2.007-1.148.93-2.233 1.805-3.246 2.036-1.283.29-2.855-.055-3.57-.544-.293-.199-.495-.43-.594-.662-.262-.621.223-1.121.301-1.207l2.515-2.744c.287-.297.582-.594.882-.885-.81.109-1.556.319-2.288.521-.91.264-1.779.51-2.663.51-.372 0-2.347-.332-2.72-.434-2.266-.63-4.263-1.241-7.235-2.651-3.565 2.693-5.947 6.057-6.636 9.762.514.136 1.34.385 1.683.464 8.067 1.818 10.578 3.693 11.033 4.081a2.67 2.67 0 0 1 2-.906c.89 0 1.695.454 2.183 1.16a2.974 2.974 0 0 1 1.923-.686c.378 0 .764.07 1.156.202a2.674 2.674 0 0 1 1.621 1.492 2.63 2.63 0 0 1 1.123-.244c.433 0 .886.102 1.339.301 1.487.644 1.718 2.127 1.587 3.24.104-.01.21-.016.32-.016 1.76.004 3.194 1.457 3.194 3.244 0 .554-.14 1.075-.38 1.53.479.275 1.7.898 2.773.756.86-.107 1.187-.405 1.303-.572.078-.118.166-.25.082-.348l-2.27-2.564s-.374-.357-.253-.497c.126-.145.356.064.524.203 1.155.98 2.57 2.463 2.57 2.463.024.012.118.203.638.293.453.086 1.25.036 1.8-.422.138-.115.277-.264.395-.411-.008.008-.016.017-.025.02.579-.755-.066-1.52-.066-1.52l-2.653-3.024s-.384-.358-.254-.5c.119-.124.361.06.529.202.839.717 2.029 1.926 3.168 3.057.223.164 1.224.79 2.545-.092.807-.53.967-1.191.948-1.688-.06-.657-.565-1.122-.565-1.122l-3.627-3.705s-.383-.332-.249-.497c.11-.139.358.06.522.2 1.158.98 4.289 3.89 4.289 3.89.046.033 1.123.816 2.461-.046.476-.313.78-.777.808-1.321a1.96 1.96 0 0 0-.611-1.502" fill="#FFF"/><path d="M29.17 40.525c-.563-.01-1.177.329-1.26.282-.042-.032.035-.259.089-.392.054-.132.791-2.394-1.008-3.18-1.382-.6-2.228.079-2.52.385-.078.08-.11.07-.12-.03-.023-.409-.207-1.51-1.4-1.883-1.709-.525-2.802.683-3.082 1.12-.123-.99-.945-1.755-1.95-1.755-1.093 0-1.98.899-1.98 2.007 0 1.11.886 2.007 1.975 2.007a1.96 1.96 0 0 0 1.37-.561c.012.014.017.03.009.066-.083.499-.235 2.305 1.629 3.038.742.293 1.381.076 1.905-.3.158-.11.185-.06.162.085-.065.465.018 1.457 1.39 2.02 1.045.432 1.666-.003 2.07-.388.175-.16.223-.133.235.12a2.494 2.494 0 0 0 2.481 2.408c1.377 0 2.494-1.128 2.494-2.525a2.517 2.517 0 0 0-2.489-2.524" fill="#FFF"/><path d="M29.17 45.394a2.301 2.301 0 0 1-2.302-2.239c-.008-.107-.016-.388-.257-.388-.099 0-.183.056-.28.145-.274.256-.621.522-1.132.522-.236 0-.485-.057-.75-.164-1.316-.544-1.334-1.458-1.281-1.824.018-.105.02-.206-.048-.285l-.078-.076h-.085c-.07 0-.135.03-.23.097-.38.269-.748.402-1.118.402-.2 0-.413-.044-.625-.123-1.731-.687-1.594-2.343-1.508-2.843.013-.103-.013-.183-.073-.233l-.128-.102-.11.109c-.34.332-.78.514-1.246.514a1.814 1.814 0 0 1-1.801-1.827c0-1.008.807-1.827 1.804-1.827.895 0 1.66.686 1.776 1.594l.059.489.268-.41c.029-.052.756-1.167 2.092-1.167.258 0 .52.044.783.126 1.066.332 1.244 1.31 1.275 1.721.017.24.186.25.218.25.096 0 .157-.06.21-.112.2-.21.64-.565 1.324-.565.314 0 .65.073.994.225 1.69.74.923 2.923.915 2.946-.143.359-.153.52-.019.613l.072.03h.051c.073 0 .166-.03.329-.087.228-.079.579-.199.901-.199h.003a2.346 2.346 0 0 1 2.31 2.342c-.003 1.294-1.041 2.346-2.313 2.346M47.12 34.87c-2.794-2.479-9.263-8.183-11.015-9.52-.997-.763-1.683-1.166-2.285-1.343a3.646 3.646 0 0 0-1.115-.176c-.448 0-.927.079-1.43.24-1.13.367-2.257 1.273-3.347 2.152l-.052.045c-1.015.818-2.068 1.666-2.86 1.849a4.8 4.8 0 0 1-1.062.116c-.89-.003-1.688-.262-1.991-.647-.05-.067-.016-.167.1-.319l.015-.02 2.465-2.69c1.925-1.956 3.743-3.8 7.94-3.9.066 0 .136-.007.206-.007 2.605.007 5.217 1.191 5.507 1.327 2.451 1.211 4.975 1.828 7.512 1.828 2.645 0 5.375-.664 8.242-2.004-.318-.275-.654-.54-.997-.8-2.521 1.11-4.922 1.666-7.237 1.666-2.366 0-4.734-.578-7.03-1.714-.121-.06-3-1.438-5.994-1.438-.078 0-.163 0-.24.004-3.522.084-5.5 1.353-6.837 2.462-1.296.032-2.416.35-3.411.632-.889.25-1.658.465-2.406.465-.302 0-.862-.026-.914-.03-.86-.027-5.195-1.105-8.643-2.427-.352.25-.692.513-1.02.778 3.603 1.5 7.987 2.658 9.368 2.75.386.023.796.07 1.207.07.918 0 1.832-.259 2.714-.511.522-.146 1.1-.311 1.707-.43l-.486.493-2.502 2.74c-.196.202-.625.743-.343 1.4.112.272.341.528.659.743.597.408 1.662.683 2.658.686.373 0 .727-.04 1.053-.113 1.051-.241 2.15-1.13 3.318-2.068.924-.747 2.244-1.697 3.25-1.978.286-.077.634-.123.907-.123.082 0 .167.001.237.01.67.083 1.31.318 2.462 1.197 2.057 1.564 11.135 9.626 11.227 9.705.005.003.584.508.547 1.353-.024.468-.28.889-.724 1.176-.392.252-.793.377-1.195.377-.605 0-1.029-.288-1.051-.311-.034-.024-3.147-2.923-4.294-3.895-.183-.152-.362-.288-.539-.288a.287.287 0 0 0-.234.112c-.18.223.02.537.256.743l3.64 3.705c0 .003.448.432.5.999.026.613-.261 1.131-.863 1.53-.43.287-.864.433-1.289.433-.56 0-.95-.256-1.038-.32l-.525-.522c-.948-.948-1.934-1.934-2.653-2.547-.174-.146-.364-.282-.54-.282a.32.32 0 0 0-.236.099c-.078.09-.134.259.069.534.084.116.185.209.185.209l2.653 3.025c.018.024.546.657.056 1.287l-.09.123a2.139 2.139 0 0 1-.25.236c-.451.384-1.06.42-1.294.42-.13 0-.25-.012-.357-.033-.265-.045-.44-.121-.522-.222l-.035-.034c-.144-.152-1.482-1.538-2.585-2.473-.148-.123-.331-.278-.52-.278a.316.316 0 0 0-.237.105c-.22.243.106.607.247.746l2.265 2.528a.669.669 0 0 1-.089.156c-.08.113-.354.391-1.173.493a2.76 2.76 0 0 1-.301.018c-.85 0-1.749-.418-2.215-.664.21-.454.316-.955.316-1.46.007-1.887-1.506-3.421-3.368-3.421h-.124c.06-.863-.058-2.5-1.709-3.215a3.502 3.502 0 0 0-1.413-.316 2.78 2.78 0 0 0-1.033.193 2.848 2.848 0 0 0-1.654-1.426 3.628 3.628 0 0 0-1.21-.215c-.689 0-1.324.202-1.887.613a2.844 2.844 0 0 0-2.22-1.09c-.752 0-1.481.307-2.016.847-.71-.547-3.5-2.348-10.976-4.069-.366-.082-1.192-.325-1.704-.477-.083.41-.149.829-.189 1.25l1.65.391c7.637 1.72 10.163 3.512 10.587 3.85-.143.352-.217.73-.218 1.116 0 1.6 1.283 2.905 2.862 2.905.176 0 .351-.019.523-.05.238 1.182.996 2.07 2.159 2.532.34.132.683.202 1.023.202.213 0 .438-.03.65-.084.214.552.698 1.238 1.773 1.685.38.154.76.236 1.13.236.301 0 .593-.053.872-.157a3.383 3.383 0 0 0 3.121 2.124c.905 0 1.782-.376 2.416-1.041.547.308 1.694.864 2.859.864.15 0 .29-.01.43-.026 1.155-.148 1.696-.607 1.94-.964.042-.057.083-.126.122-.196.266.08.572.146.914.146.63 0 1.236-.216 1.846-.67.603-.44 1.022-1.072 1.088-1.606 0-.01.005-.013.005-.023a3.3 3.3 0 0 0 .62.063c.65 0 1.286-.205 1.894-.613 1.18-.78 1.383-1.802 1.361-2.472.204.04.42.067.627.067.606 0 1.203-.19 1.78-.557a2.65 2.65 0 0 0 1.232-2.04 2.776 2.776 0 0 0-.39-1.646c1.968-.86 6.477-2.53 11.78-3.744a11.75 11.75 0 0 0-.163-1.241c-6.418 1.45-11.208 3.55-12.412 4.097" fill="#000"/><path d="M158.695 28.243c-.515.696-1.255 1.041-2.22 1.041-.961 0-1.708-.345-2.226-1.04-.519-.7-.78-1.686-.78-2.966 0-1.283.261-2.27.78-2.959.518-.696 1.265-1.04 2.225-1.04.966 0 1.706.344 2.221 1.04.519.69.774 1.676.774 2.96 0 1.28-.255 2.265-.774 2.964m2.64-7.764c-1.063-1.353-2.678-2.03-4.85-2.03-2.166 0-3.78.677-4.843 2.03-1.07 1.353-1.599 2.95-1.599 4.8 0 1.874.53 3.48 1.599 4.815 1.062 1.33 2.677 1.997 4.844 1.997 2.171 0 3.786-.667 4.85-1.997 1.064-1.336 1.595-2.941 1.595-4.816 0-1.85-.531-3.446-1.595-4.799m-28.884 6.181c-.02 1.125-.342 1.897-.953 2.324a3.41 3.41 0 0 1-1.991.634c-.458 0-.846-.129-1.163-.385-.316-.249-.474-.667-.474-1.243 0-.638.26-1.118.774-1.423.314-.18.82-.335 1.525-.458l.756-.142c.374-.073.67-.146.886-.23.215-.08.429-.188.64-.324v1.247zm1.678-7.313c-1.082-.552-2.315-.837-3.706-.837-2.135 0-3.646.565-4.523 1.701-.556.72-.863 1.643-.935 2.766h3.192c.078-.493.235-.888.472-1.18.33-.388.892-.587 1.68-.587.707 0 1.243.1 1.609.3.363.198.548.566.548 1.087 0 .434-.239.753-.713.955-.266.12-.706.218-1.325.298l-1.13.142c-1.29.16-2.262.442-2.93.824-1.207.703-1.809 1.844-1.809 3.425 0 1.214.377 2.156 1.127 2.82.748.663 1.702.942 2.859.995 7.218.329 7.135-3.86 7.2-4.733v-4.817c0-1.545-.536-2.6-1.616-3.16zm-16.469 2.04c.83 0 1.433.255 1.827.775.27.382.435.81.5 1.288h3.562c-.196-1.82-.823-3.095-1.883-3.815-1.067-.717-2.436-1.081-4.102-1.081-1.956 0-3.5.613-4.615 1.834-1.11 1.22-1.674 2.923-1.674 5.124 0 1.944.504 3.529 1.51 4.748 1.012 1.22 2.59 1.83 4.728 1.83 2.143 0 3.76-.73 4.852-2.193.683-.905 1.066-1.868 1.15-2.886h-3.554c-.074.674-.278 1.22-.621 1.64-.34.42-.919.633-1.74.633-1.148 0-1.926-.531-2.346-1.596-.23-.567-.34-1.323-.34-2.261 0-.98.11-1.768.34-2.362.432-1.122 1.235-1.678 2.406-1.678m-7.34-2.833c-7.318 0-6.881 6.573-6.881 6.573v6.677h3.322v-6.26c0-1.027.124-1.79.378-2.283.458-.876 1.348-1.314 2.677-1.314.099 0 .23.006.392.013.16.008.343.02.556.046v-3.423l-.286-.023c-.045 0-.097-.006-.158-.006m-16.659 3.49c.471-.49 1.125-.73 1.97-.73.776 0 1.43.225 1.957.686.523.465.821 1.138.877 2.027h-5.68c.117-.839.41-1.496.876-1.983zm4.463 6.272a2.272 2.272 0 0 1-.452.505c-.47.397-1.108.516-1.857.516-.711 0-1.268-.111-1.77-.433-.822-.515-1.29-1.39-1.342-2.671h9.188c.014-1.107-.026-1.954-.114-2.544-.153-1-.49-1.881-1.002-2.644-.575-.862-1.303-1.492-2.176-1.893-.885-.399-1.868-.598-2.969-.598-1.852 0-3.35.588-4.51 1.773-1.158 1.183-1.74 2.884-1.74 5.1 0 2.365.642 4.07 1.927 5.124 1.28 1.05 2.764 1.575 4.443 1.575 2.03 0 3.612-.623 4.746-1.87.605-.653.988-1.3 1.15-1.94h-3.522zm-10.078 3.487h-3.033v-7.745c0-.715-.231-2.394-2.232-2.394-1.334 0-2.296.975-2.296 2.394v7.745h-3.039v-7.745c0-.715-.203-2.394-2.205-2.394-1.356 0-2.302.975-2.302 2.394v7.745h-3.033v-7.675c0-3.197 2.092-5.619 5.335-5.619 1.611 0 2.92.687 3.77 1.784a4.805 4.805 0 0 1 3.77-1.784c3.312 0 5.265 2.325 5.265 5.619v7.675zm57.026-3.531c-.488.702-1.2 1.055-2.131 1.055-.934 0-1.63-.356-2.09-1.065-.457-.707-.686-1.738-.686-2.918 0-1.096.221-2.017.68-2.757.444-.736 1.154-1.108 2.118-1.108.635 0 1.187.202 1.67.61.774.673 1.168 1.877 1.168 3.446 0 1.115-.245 2.03-.729 2.737zm3.98-13.765s-3.343-.36-3.343 2.362v3.611a4.026 4.026 0 0 0-1.447-1.411c-.592-.34-1.278-.515-2.04-.515-1.655 0-2.981.63-3.973 1.88-.991 1.253-1.487 3.058-1.487 5.24 0 1.892.504 3.444 1.51 4.655 1.007 1.21 2.982 1.74 4.734 1.74 6.115 0 6.045-5.32 6.045-5.32V14.507z" fill="#2D3277"/><path d="M99.715 44.07c0-1.271-.242-2.246-.73-2.934-.49-.676-1.192-1.021-2.102-1.021-.875 0-1.56.345-2.048 1.021-.455.622-.681 1.6-.681 2.933 0 1.24.239 2.17.734 2.789.488.68 1.183 1.021 2.1 1.021.842 0 1.507-.341 1.997-1.021.488-.686.73-1.615.73-2.789zm-5.561 9.114c0 .454-.16.846-.487 1.171-.327.324-.72.488-1.177.488h-1.656V43.137c0-2.276.757-3.702 2-4.663.823-.64 2.049-1.247 4.341-1.247 1.553 0 3.37.614 4.35 1.824 1.099 1.367 1.562 2.885 1.562 4.87 0 2.055-.489 3.714-1.467 4.988-.975 1.236-2.23 1.853-3.755 1.853-.817 0-1.535-.146-2.15-.44-.649-.326-1.172-.83-1.561-1.517v4.379zm25.464-9.114c0 2.247.641 3.489 1.922 3.737 1.273.24 2.22-.062 2.83-.905.281-.355.492-.92.618-1.682a7.32 7.32 0 0 0 .027-2.273 4.614 4.614 0 0 0-.794-2.005c-.414-.581-1.02-.879-1.82-.879-1.09 0-1.823.411-2.207 1.22-.383.82-.576 1.742-.576 2.786m5.466 5.612v-.826c-.571.917-1.347 1.477-2.323 1.711a4.757 4.757 0 0 1-2.904-.247c-.952-.389-1.782-1.116-2.47-2.171-.682-1.06-1.025-2.454-1.025-4.18 0-2.018.454-3.65 1.362-4.904.914-1.25 2.379-1.827 4.387-1.88 1.985-.05 3.139.404 4.268 1.27 1.234.952 1.966 2.41 1.966 4.69v6.885c.01 2.19-1.501 6.25-6.234 5.905-2.927-.216-4.558-1.433-5.464-4.196h3.497c.259.453.646.8 1.18 1.044.526.246 1.054.313 1.577.2.527-.114 1.005-.435 1.443-.953.425-.52.674-1.306.74-2.348m-13.238-4.252c-.025 1.121-.344 1.897-.95 2.32a3.436 3.436 0 0 1-2.001.632c-.453 0-.84-.123-1.159-.379-.317-.252-.475-.673-.475-1.243 0-.644.258-1.118.783-1.426.308-.18.81-.335 1.514-.458l.755-.142c.378-.07.68-.148.889-.227.218-.086.427-.193.644-.325v1.248zm1.675-7.317c-1.081-.548-2.314-.833-3.704-.833-2.14 0-3.65.565-4.525 1.698-.55.72-.863 1.643-.938 2.77h3.196c.076-.498.234-.893.47-1.184.332-.392.892-.587 1.682-.587.707 0 1.244.097 1.608.299.362.199.55.563.55 1.088 0 .433-.245.752-.717.958-.265.116-.706.215-1.325.291l-1.13.143c-1.288.166-2.263.438-2.922.824-1.21.708-1.812 1.85-1.812 3.428 0 1.217.373 2.159 1.124 2.823.75.657 1.703.942 2.855.992 7.222.328 7.14-3.86 7.208-4.73v-4.82c0-1.549-.54-2.603-1.62-3.16zm24.744 8.825c-.514.699-1.254 1.044-2.22 1.044-.965 0-1.707-.345-2.225-1.044-.522-.696-.78-1.685-.78-2.963 0-1.283.258-2.269.78-2.965.518-.69 1.26-1.034 2.225-1.034.966 0 1.706.345 2.22 1.034.52.696.775 1.682.775 2.965 0 1.278-.255 2.267-.775 2.963m2.642-7.762c-1.07-1.353-2.686-2.03-4.855-2.03-2.164 0-3.782.677-4.843 2.03-1.068 1.353-1.601 2.95-1.601 4.8 0 1.874.533 3.476 1.601 4.815 1.061 1.33 2.68 1.997 4.843 1.997 2.17 0 3.786-.667 4.855-1.997 1.062-1.339 1.595-2.941 1.595-4.816 0-1.85-.533-3.446-1.595-4.799" fill="#00A3DB"/></g></svg><svg width="163" height="46" viewBox="-2 -2 163 46" y="822"><g fill="none"><path fill="#FFF" d="M0 37.188h37.188V0H0z"/><path d="M13.842 20.25c0 1.917-.429 3.391-2.614 3.391-2.447 0-2.709-1.73-2.709-3.135V9.514l-3.137.68V20.95c0 4.093 2.899 5.66 5.704 5.66 3.66 0 5.893-2.316 5.893-5.215V9.514l-3.137.68V20.25zm10.854 3.648c-2.02 0-3.493-1.66-3.493-3.602 0-1.941 1.474-3.602 3.493-3.602 2.02 0 3.494 1.66 3.494 3.602 0 1.941-1.474 3.602-3.494 3.602m.193-9.904a5.94 5.94 0 0 0-3.393 1.044v-1.746l-3.027.72v16.433l3.02-.68v-4.206a6.016 6.016 0 0 0 3.4 1.048c3.401 0 6.158-2.822 6.158-6.306 0-3.482-2.757-6.307-6.158-6.307" fill="#E9950D"/><path d="M146.529 9.952h.48c.156 0 .441 0 .441.412 0 .156-.07.428-.454.428h-.467v-.84zm.015 1.321h.523c.215 0 .269.087.312.26 0 .043.097.81.115.955h.634c-.085-.144-.126-.558-.156-.8-.054-.384-.084-.654-.496-.682.213-.072.567-.188.567-.74 0-.801-.692-.801-1.047-.801h-1.035v3.023h.583v-1.215z" fill="#FFF"/><path d="M146.708 8.918c.924 0 1.688.731 1.688 1.648 0 .903-.755 1.659-1.688 1.659a1.667 1.667 0 0 1-1.674-1.66c0-.927.764-1.647 1.674-1.647m.007 3.625c1.104 0 2.002-.886 2.002-1.971 0-1.116-.922-1.972-2.002-1.972-1.072 0-2.003.856-2.003 1.972 0 1.096.911 1.971 2.003 1.971M87.696 2.233s-4.332 5.27-4.514 7.151c0 0 1.479.386 5.981-5.19a4.43 4.43 0 0 0 .324-.402l.008-.01h-.001c.635-.897.427-1.519-1.798-1.55m34.071 17.438c-3.358-2.887-9.888 5.893-12.583 9.345-3.417 3.575-.058-4.325.489-5.52 6.167-11.476 12.336-9.283 12.336-9.283.73-1.882-5.801-1.692-6.595-1.632-6.164 2.262-10.015 13.171-11.173 16.626-1.04 3.888 3.051 3.193 3.79 2.697 6.219-8.85 7.147-8.97 7.874-9.225 1.768.126 0 6.528.116 7.15 2.935-.939 5.746-9.658 5.746-10.157m26.798 5.765c-1.248.586-8.991 4.537-10.41 5.486h-.002s-.392.212-.557.41a.216.216 0 0 0-.06.092c-.043.105.012.196.284.226a2.273 2.273 0 0 0 .304.062s10.624-5.455 11.97-5.773c.484-.06.236-1.066-1.529-.503" fill="#FFF"/><path d="M113.717 10.7c4.516-2.45 9.39-4.769 9.39-4.769s-3.917-3.031-7.692 0c-3.725 2.963-9.337 7.626-19.922 24.55v.002c-.423.67-.797.88-1.096.894-.773 0-1.07-1.366-1.108-1.558-.112-.754.047-1.572.272-3.31.751-5.777 3.851-12 1.315-13.943v-.006s-.943-.769-2.977-.455c0 0 .191 3.417.214 5.088-.118 4.16-.405 9.613-.502 11.261-.01.537-.295 2.61.533 3.607v.002s.013.017.04.047c.054.058.109.114.169.161.524.466 1.964 1.408 3.57-.471.161-.177.344-.397.551-.663.146-.184.258-.33.337-.442.32-.437.697-.967 1.147-1.62 2.134-3.008 9.939-15.244 15.76-18.375m23.153-8.505c.007-.01.018-.017.024-.028a4.21 4.21 0 0 0 .378-.561l.001-.003c.052-.1.068-.149.068-.149.031-.165.585-1.385-2.87-1.235-2.914.126-3.04 2.317-3.008 3.001l-.004-.003s-.017 1.283-1.072 3.57c-2.902 6.268-12.985 28.283-13.429 32.651h-.001s-.018.109-.013.214l-.002.03h.003c.005.07.025.137.068.158.06.027.187-.108.295-.247a3.061 3.061 0 0 0 .186-.261c.36-.539 1.022-1.709 2.315-4.168 2.568-4.958 16.36-31.8 16.36-31.8s.283-.53.701-1.169" fill="#FFF"/><path d="M14.407 1.834c-.233-.599-1.233-.503-1.233-.503l-.004.005c-2.465-.008-8.475 2.793-10.908 3.98 0 0-.134.057-.304.149-.447.242-1.15.728-.394 1.087.198.076.444.107.677.118.382.017.735-.02.808-.02.186-.562 6.041-2.323 8.974-3.134a11.018 11.018 0 0 0 1.445-.526c.001-.002.004-.002.004-.002.436-.185 1.168-.553.935-1.154" fill="#FFF" mask="url(#b)" transform="translate(141.793 25.5)"/><path d="M68.833 22.052c-7.14 7.966-15.447 11.982-18.621 13.488-1.259.68-2.012 1.047-2.475 1.23a2.036 2.036 0 0 0-.104.042c-.027.013-.05.017-.076.027l-.09.032c-.721.174-.34-.781-.298-.912 3.151-6.55 21.238-14.281 21.238-14.281.308-.125.549.12.426.374m9.769-9.408c-.67 1.882-2.32 5.71-2.744 5.774-.494.06-.918-.19-2.14-1.131-1.588-1.255-3.172-3.887-13.734-2.193-.43.038-.902-.937 1.22-2.324 1.892-1.243 6.652-5.019 15.752-6.839 0 0-1.647-5.325-4.275-4.14-1.819 1.1-15.361 10.29-16.914 13.05-1.149 1.743-.357 4.156 3.365 2.733 2.32-.923 9.698-2.59 12.426.401.106.125.238.407-.072.912-.274.402-.773.864-1.617 1.096-1.91.451-19.157 5.816-26.254 15.5-.192.283-.63 1.056-.28 1.823.476 1.055 1.642 2.314 4.522 1.173 3.45-1.367 10.598-4.193 26.042-17.243.458-.378 1.164-.942.426 1.006-.365.878-4.085 8.593-2.073 9.661 1.91.585 3.844.875 4.215-1.508.363-2.071 2.071-10.1 6.96-14.802.239-.5-3.36-5.33-4.825-2.949m61.889 1.928c.517-.247 1.354-.49 1.852.191.262.458.189 1.13-.009 1.734-.013.034-.557 1.304-2.547 2.472-2.361 1.357-5.88 2.94-6.423 2.896 1.355-3.791 5.485-6.386 7.127-7.293m-7.616 8.232s6.567-1.878 9.81-4.434c2.336-1.672 1.982-3.897 1.982-3.897-.034-.929-.507-1.882-2.326-2.143-.917-.06-6.964-.877-10.99 7.213-1.338 2.343-5.458 9.161-4.703 11.451v.011c.355.9 1.056 1.258 1.056 1.258 3.182 1.418 9.085-3.012 11.202-4.735 0 0 2.465-1.806 2.619-1.911.921-.647 1.556-1.122 1.605-1.245.063-.374-.608-.814-3.903 1.508-1.892 1.296-4.446 3.066-5.976 3.932-.226.122-1.204.608-2.252.62-.803-.035-1.443-.498-.445-2.672 1.098-2.82 1.953-4.956 2.32-4.956" fill="#FFF"/></g></svg><svg width="394" height="82" viewBox="-2 -2 394 82" fill="none" y="868"><path d="M78.16 19.621c-8.52 0-16.134 4.402-16.134 12.536 0 9.328 13.504 9.972 13.504 14.658 0 1.973-2.269 3.74-6.143 3.74-5.498 0-9.607-2.468-9.607-2.468l-1.759 8.207s4.734 2.085 11.02 2.085c9.315 0 16.645-4.619 16.645-12.891 0-9.857-13.56-10.482-13.56-14.831 0-1.546 1.862-3.24 5.725-3.24 4.359 0 7.915 1.795 7.915 1.795l1.72-7.927s-3.869-1.664-9.326-1.664zM.206 20.22 0 21.416s3.585.654 6.813 1.958c4.157 1.496 4.453 2.367 5.153 5.072l7.63 29.316h10.226l15.755-37.543H35.374L25.25 45.745l-4.13-21.637c-.38-2.476-2.299-3.889-4.648-3.889H.206zm49.474 0-8.005 37.543h9.73l7.976-37.543H49.68zm54.265 0c-2.346 0-3.589 1.252-4.501 3.44L85.189 57.763h10.203l1.974-5.684h12.431l1.2 5.684H120l-7.854-37.543h-8.201zm1.327 10.143 3.024 14.088h-8.102l5.078-14.088z" fill="#fff"/></svg><svg width="394" height="82" viewBox="-2 -2 394 82" fill="none" y="950"><path d="M78.16 19.621c-8.52 0-16.134 4.402-16.134 12.536 0 9.328 13.504 9.972 13.504 14.658 0 1.973-2.269 3.74-6.143 3.74-5.498 0-9.607-2.468-9.607-2.468l-1.759 8.207s4.734 2.085 11.02 2.085c9.315 0 16.645-4.619 16.645-12.891 0-9.857-13.56-10.482-13.56-14.831 0-1.546 1.862-3.24 5.725-3.24 4.359 0 7.915 1.795 7.915 1.795l1.72-7.927s-3.869-1.664-9.326-1.664zM.206 20.22 0 21.416s3.585.654 6.813 1.958c4.157 1.496 4.453 2.367 5.153 5.072l7.63 29.316h10.226l15.755-37.543H35.374L25.25 45.745l-4.13-21.637c-.38-2.476-2.299-3.889-4.648-3.889H.206zm49.474 0-8.005 37.543h9.73l7.976-37.543H49.68zm54.265 0c-2.346 0-3.589 1.252-4.501 3.44L85.189 57.763h10.203l1.974-5.684h12.431l1.2 5.684H120l-7.854-37.543h-8.201zm1.327 10.143 3.024 14.088h-8.102l5.078-14.088z" fill="#1434CB"/></svg></svg>